<?xml version="1.0" encoding="UTF-8"?>
<!DOCTYPE svg PUBLIC "-//W3C//DTD SVG 1.1//EN" "http://www.w3.org/Graphics/SVG/1.1/DTD/svg11.dtd">
<!-- Creator: CorelDRAW -->
<svg xmlns="http://www.w3.org/2000/svg" xml:space="preserve" width="148mm" height="105mm" version="1.1" style="shape-rendering:geometricPrecision; text-rendering:geometricPrecision; image-rendering:optimizeQuality; fill-rule:evenodd; clip-rule:evenodd"
viewBox="0 0 14800 10500"
 xmlns:xlink="http://www.w3.org/1999/xlink"
 xmlns:xodm="http://www.corel.com/coreldraw/odm/2003">
 <defs>
  <style type="text/css">
   <![CDATA[
    .fil0 {fill:#000}
   ]]>
  </style>
 </defs>
 <g id="Camada_x0020_1">
  <metadata id="CorelCorpID_0Corel-Layer"/>
  <g id="_1838392742400">
   <path class="fil0" d="M4771.16 3944.28c91.19,136.2 1039.66,1048.25 1065.62,1065.62 97.68,-65.4 283.93,-273.49 381.31,-370.87l563.9 -564.4c45.07,-41.68 60.02,-44.24 104.57,-83.48l282.24 -281.93c228.92,-228.92 89.49,-182.82 632.04,-182.82l0 -1546.18 -1086.49 0c-80.82,0 -400.58,390.41 -485.8,475.36 -82.72,82.45 -162.58,155.13 -240.37,240.19 -24.18,26.46 -36.45,46.79 -56.68,68.68 -37,39.98 -24.95,22.39 -67.25,58.12 -157.67,133.19 -830.7,838.21 -1053.06,1078.2 -2.89,3.11 -7.33,7.78 -10.09,10.79 -33.37,36.01 -4.57,-1.9 -29.94,32.72z"/>
   <path class="fil0" d="M8260.53 2042.9l0 1420.82c0,48.15 14.54,62.68 62.68,62.68l1880.51 0c48.71,0 104.46,-55.75 104.46,-104.46l0 -1358.13c0,-48.92 -34.65,-83.59 -83.56,-83.59l-1901.41 0 -2.22 0c-46.37,0.47 -60.46,15.28 -60.46,62.68z"/>
   <path class="fil0" d="M7947.11 5511.37c105.5,-8.76 264.31,-95.48 364.16,-137.29l1056.66 -447.74c-18.34,-78.73 -73.81,-194.69 -104.42,-271.66l-334.36 -793.96 -1629.77 0c15.99,192 232.12,644.63 310.23,838.97l337.5 811.68z"/>
   <path class="fil0" d="M5544.24 6869.52l0 1504.38c0,72.04 15.48,80.92 20.91,146.27 157.15,36.62 251.25,20.9 438.78,20.9l20.9 -438.78c-0.02,-153.23 0,-306.46 0,-459.69 220.45,147.63 450.56,898.47 689.52,898.47 174.6,0 167.69,13.06 313.42,-20.9 49.97,-214.51 20.87,-1382.61 20.87,-1692.45 0,-148.64 -289.23,-104.47 -438.78,-104.47 -7.43,89.22 -33.83,98.03 -41.41,188.42l-0.37 730.93c-14.93,-17.17 -19.82,-22.26 -37.44,-46.15l-115.49 -177.01c-52.25,-88.58 -94.57,-142.23 -146.27,-229.84 -54.32,-92.1 -267.62,-398.06 -285.85,-466.35 -203.18,0 -438.79,-54.34 -438.79,146.27z"/>
   <path class="fil0" d="M3057.81 6723.25c-106.29,221.49 -45.63,665.71 -41.02,857.26l-21.66 312.83c0,126.18 -9.04,456.52 21.42,563.6 13.45,47.34 2.54,79.25 165.79,84.95 82.05,2.88 169.88,-3.98 252.26,-1.51 94.74,2.82 129.91,23.25 229.14,23.25 97.53,0 236.47,-23.94 480.66,-22.48 248.94,1.48 271.54,58.02 271.54,-334.4 0,-73.37 -92.72,-83.58 -167.15,-83.58l-773.1 0 0 -313.42 647.74 0c72.03,0 80.89,-15.45 146.27,-20.88 9.23,-415.26 214.58,-397 -794.01,-397l0 -250.73c100.54,48.24 658.52,26.33 778.53,5.42 55.04,-9.57 119.94,39.56 119.94,-214.35 0,-105.03 -18.8,-93.58 -20.9,-188.05l-625.01 -41.41c-210.93,17.15 -429.48,20.5 -670.44,20.5z"/>
   <path class="fil0" d="M10746.99 6744.16l-23.35 1631.91c21.1,155.16 58.79,183.61 231.73,187.41 145.14,3.18 233.14,-23.1 397.48,-22.48 139.28,0.52 278.66,0.02 417.95,0.07 395.42,0.1 355.22,58.69 355.22,-334.32 0,-64.23 -61.22,-83.58 -125.36,-83.58l-794.01 0 0 -313.42 668.64 0c171.14,0 125.37,-132.01 125.37,-376.1 -123.08,-10.24 -43.59,-41.78 -125.37,-41.78l-668.64 0 0 -229.83c1002.32,0 877.57,69.89 877.57,-417.88 -132.55,0 -174.46,-20.91 -313.42,-20.91l-752.2 0c-127.09,0 -152.41,20.91 -271.61,20.91z"/>
   <path class="fil0" d="M8135.16 7245.6c0,675.75 1002.94,489.25 1002.94,794.01 0,119.07 -177.86,125.36 -271.64,125.36 -335.5,0 -209.67,-271.63 -355.2,-271.63 -207.15,0 -397,-38.5 -397,83.58 0,364.87 330.37,576.39 683.99,605.93l171.52 0c189.35,-15.99 371.21,-85.66 498.11,-213.47 146.81,-147.84 178.52,-390.95 101.47,-572.98 -72.77,-171.89 -257,-262.75 -433.4,-318.8 -217.24,-69 -499.32,-85.93 -499.32,-273.78 0,-110.51 201.01,-133.34 293.53,-106.96 102.17,29.15 202.36,133.17 228.84,232.33 370.6,0 396.98,24.3 396.98,-167.15 0,-127.1 -120.46,-277.96 -233.16,-351.87 -429.46,-281.7 -1187.66,-80.72 -1187.66,435.43z"/>
   <path class="fil0" d="M425.11 7182.92c0,363.73 165.84,506.82 498.7,608.69 116.29,35.61 301.35,63.01 404.7,117.79 348.36,184.67 -367.48,490.56 -485.52,-16.06 -166.9,0 -282.18,9.6 -417.88,20.9 -53.01,227.51 7.5,353.91 214.58,516.69 104.26,81.98 297.94,143.73 502.11,151.92l91.08 0c328.89,-13.42 654.82,-176.69 654.82,-626.83 0,-263.62 -228.69,-385.11 -420.77,-456.77 -112.26,-41.91 -220.67,-60.54 -337.62,-101.19 -133.81,-46.49 -213,-87.36 -223.64,-215.14 46.45,-48.97 75.69,-71.15 162.04,-90.18 300.83,-66.33 287.41,236.45 485.7,236.45 235.85,0 115.96,-0.67 292.51,-41.78 0,-690.56 -1026.65,-782.73 -1341.4,-317.57 -24.77,36.6 -79.41,159.77 -79.41,213.08z"/>
   <path class="fil0" d="M4269.7 2105.59c0,88.22 -15.21,116.21 -16.76,169.09 -1.9,64.14 14.39,75.74 17.37,164.46l-2.44 942.82c-1.36,178 -33.49,144.44 398.8,144.44 68.91,0 476.89,-456.28 589.7,-559.51l784.13 -782.95c23.89,-23.72 239.41,-203.72 67.89,-203.72l-1838.69 0 0 125.37z"/>
   <path class="fil0" d="M13212.52 7120.23c101.28,8.44 55.06,20.91 229.85,20.91l0 1002.93c-279.88,0 -229.85,-56.39 -229.85,334.32 0,48.15 14.53,62.68 62.68,62.68l814.89 0c51.75,0 76.6,-54.78 83.58,-125.83l0 -95.29c-5.5,-66.55 -21.3,-133.19 -41.78,-175.88 -173.83,0 -229.85,105.67 -229.85,-397 0,-214.09 20.9,-360.19 20.9,-585.03l91.28 -12.44c66.19,-10.27 87.17,-17.37 138.55,-29.37 0,-494.04 133.71,-396.98 -856.67,-396.98 -130.08,0 -83.58,269.94 -83.58,396.98z"/>
  </g>
 </g>
</svg>
